<svg version="1.2" xmlns="http://www.w3.org/2000/svg" viewBox="0 0 1402 1175" width="1402" height="1175">
	<title>Airtable_Logo-svg</title>
	<style>
		.s0 { fill: #fcb400 } 
		.s1 { fill: #18bfff } 
		.s2 { fill: #f82b60 } 
		.s3 { opacity: .3;fill: #000000 } 
	</style>
	<path id="Layer" class="s0" d="m626 15.8l-522.7 216.5c-29 12-28.7 53.4 0.5 65l524.9 208.3c11.4 4.5 23.2 8 35.2 10.3 12 2.3 24.3 3.5 36.5 3.5 12.3 0 24.5-1.2 36.6-3.5 12-2.3 23.8-5.8 35.2-10.3l524.9-208.3c29.2-11.6 29.5-53 0.5-65l-522.7-216.5c-11.8-4.9-24-8.6-36.5-11.1-12.5-2.5-25.2-3.8-38-3.8-12.7 0-25.4 1.3-37.9 3.8-12.5 2.5-24.7 6.2-36.5 11.1z"/>
	<path id="Layer" class="s1" d="m747 619.4v520.5c0 24.8 25 41.7 47.9 32.6l584.9-227.3c3.2-1.2 6.2-3 9-5.2 2.7-2.2 5.1-4.8 7-7.6 2-2.9 3.5-6.1 4.5-9.4 1.1-3.4 1.6-6.9 1.6-10.3v-520.6c0-24.7-25-41.7-47.9-32.5l-584.9 227.2c-3.2 1.3-6.3 3.1-9 5.3-2.7 2.1-5.1 4.7-7 7.6-2 2.9-3.5 6.1-4.5 9.4-1.1 3.3-1.6 6.8-1.6 10.3z"/>
	<path id="Layer" class="s2" d="m610.4 646.3l-173.5 83.8-17.6 8.6-366.4 175.7c-23.2 11.2-52.9-5.7-52.9-31.5v-488.6c0-9.3 4.8-17.4 11.2-23.5q1-0.9 2-1.8 1.1-1 2.2-1.8 1.1-0.8 2.3-1.6 1.2-0.7 2.4-1.4c8.7-5.3 21.2-6.7 31.8-2.5l555.6 220.4c28.3 11.2 30.5 50.8 2.9 64.2z"/>
	<path id="Layer" class="s3" d="m610.4 646.3l-173.5 83.8-425.7-359.3q1-0.9 2-1.9 1.1-0.9 2.2-1.7 1.1-0.8 2.3-1.6 1.2-0.7 2.4-1.4c8.7-5.3 21.2-6.7 31.8-2.5l555.6 220.4c28.3 11.2 30.5 50.8 2.9 64.2z"/>
</svg>