<?xml version="1.0" encoding="UTF-8" standalone="no"?>
<!-- Created with Inkscape (http://www.inkscape.org/) -->

<svg
   width="153.12596mm"
   height="128.63097mm"
   viewBox="0 0 153.12596 128.63097"
   version="1.1"
   id="svg5"
   inkscape:version="1.1.2 (b8e25be833, 2022-02-05)"
   sodipodi:docname="StreamYard 2021.svg"
   xmlns:inkscape="http://www.inkscape.org/namespaces/inkscape"
   xmlns:sodipodi="http://sodipodi.sourceforge.net/DTD/sodipodi-0.dtd"
   xmlns="http://www.w3.org/2000/svg"
   xmlns:svg="http://www.w3.org/2000/svg">
  <sodipodi:namedview
     id="namedview7"
     pagecolor="#ffffff"
     bordercolor="#666666"
     borderopacity="1.0"
     inkscape:pageshadow="2"
     inkscape:pageopacity="0.0"
     inkscape:pagecheckerboard="0"
     inkscape:document-units="mm"
     showgrid="false"
     inkscape:zoom="0.22645918"
     inkscape:cx="911.86411"
     inkscape:cy="-353.26455"
     inkscape:window-width="1920"
     inkscape:window-height="1017"
     inkscape:window-x="-8"
     inkscape:window-y="-8"
     inkscape:window-maximized="1"
     inkscape:current-layer="g1382" />
  <defs
     id="defs2" />
  <g
     inkscape:label="Layer 1"
     inkscape:groupmode="layer"
     id="layer1"
     transform="translate(26.51471,6.6840383)">
    <g
       style="fill:none"
       id="g938"
       transform="matrix(1.213123,0,0,1.213123,-27.165697,-6.9598278)">
      <g
         style="fill:none"
         id="g1382"
         transform="matrix(2.6242002,0,0,2.6242002,-0.24255882,0.22733845)">
        <path
           d="M 42.1005,23.3421 C 41.6408,23.0295 41.1811,22.6907 40.7469,22.3782 37.9378,20.3722 34.6177,16.9074 33.9793,16.23 33.6473,14.2501 33.0599,11.8534 31.1957,9.09195 29.74,6.48681 27.1095,4.97582 25.5261,4.27243 24.1727,0.729439 17.4816,0.208411 14.9023,0.026051 14.5959,-3.98565e-7 14.2894,0 13.9829,0 8.87528,0 7.82821,3.56904 7.62391,5.05398 6.347,5.13213 5.24886,5.44474 4.30395,5.99183 1.36705,7.73727 0.549829,11.2542 0.371061,13.8854 c -0.153229,2.4489 -0.025538,3.4127 0,3.5951 0.204305,1.9799 0.740609,3.4649 2.758119,5.08 C 1.8012,28.6826 1.31597,35.8207 1.29044,35.8989 l -0.02554,0.1823 0.10215,0.1563 c 0.10215,0.1563 2.83473,3.7775 8.83625,4.1422 0.2554,0.0261 0.5362,0.0261 0.7916,0.0261 6.5634,0 8.9639,-5.1843 9.0661,-5.3927 l 0.1022,-0.2084 -0.0767,-0.2085 c 0,0 -0.5873,-1.6411 0.3065,-4.6631 0.7406,-2.5009 3.371,-2.9438 4.0606,-2.996 3.1667,2.4489 11.9774,7.1381 14.2759,8.076 1.1492,0.469 2.2473,0.7295 3.2178,0.7295 1.1492,0 2.0174,-0.3647 2.4261,-0.99 0.6895,-1.1202 0.5618,-2.1883 -0.3831,-3.1522 0.2554,0.0521 0.5619,0.0782 0.8938,0.1302 0.3065,0.0522 0.7151,0.0782 1.0982,0.0782 1.4046,0 2.1963,-0.6773 2.4005,-2.0842 0.2299,-1.6933 -2.3239,-3.6471 -6.2823,-6.3825 z m -31.08,16.5686 c -0.0256,0 -0.0256,0 -0.0511,0 0.1022,0 0.2043,0 0.332,0 -0.1021,0 -0.1788,0 -0.2809,0 z M 13.8807,0.547079 c 0.0256,0 0.0767,0 0.1022,0 0.0766,0 0.1277,0 0.2043,0 -0.0766,0 -0.2043,-0.026051 -0.3065,0 z m 3.5499,0.286566 C 17.7881,0.885748 18.1712,0.93785 18.5542,0.989952 18.1712,0.93785 17.7881,0.859696 17.4306,0.833645 Z"
           fill="#121a2c"
           id="path1303" />
        <path
           d="M 40.6195,22.8211 C 37.4273,20.5546 33.6732,16.4905 33.6732,16.4905 33.3411,14.4064 32.7793,12.1139 30.9406,9.40458 29.4593,6.74732 26.6757,5.28844 25.2966,4.68927 24.2751,1.30258 17.5841,0.755499 15.0558,0.57314 8.13495,0.0521115 8.26264,5.80947 8.26264,5.80947 l -2.4772,8.36253 -1.8643,8.0759 c -1.43013,6.2524 -1.91536,13.703 -1.91536,13.703 0,0 2.6049,3.5691 8.45322,3.9339 6.8952,0.4167 9.3469,-5.0801 9.3469,-5.0801 0,0 -0.664,-1.7455 0.3064,-5.0018 0.9705,-3.2565 4.7246,-3.3868 4.7246,-3.3868 3.039,2.4228 12.0541,7.2163 14.3014,8.1281 2.656,1.0942 4.5203,0.7294 5.0055,-0.0521 0.4852,-0.7816 0.6896,-1.7715 -0.7661,-2.9178 -0.945,-0.7294 -1.5068,-1.1202 -1.5068,-1.1202 1.0726,0.2605 1.2003,0.5211 3.2944,0.7816 1.4813,0.1824 2.656,0.1824 2.9114,-1.537 0.2043,-1.7716 -4.0861,-4.481 -7.4572,-6.8776 z"
           fill="#121a2c"
           id="path1305" />
        <path
           d="M 11.1473,35.404 C 7.11227,35.2738 4.76275,33.8669 3.97107,33.3198 l -0.28093,2.0321 c 0,0 3.09012,2.9698 7.17626,2.9698 1.4557,0 4.316,0.1563 7.1251,-3.595 0,0 -0.1021,-0.7816 -0.0511,-1.8757 -1.0215,1.0159 -2.5282,2.6833 -6.7931,2.553 z"
           fill="#feffff"
           id="path1307" />
        <path
           d="m 3.69014,33.1115 c 0,0 0.10212,0.0781 0.28083,0.2083 L 3.9965,33.0854 Z"
           fill="#121a2c"
           id="path1309" />
        <path
           d="m 18.4268,32.382 -0.4596,0.0261 c 0,0.1563 -0.0256,0.2866 -0.0256,0.4429 0.1788,-0.1824 0.332,-0.3387 0.4852,-0.469 z"
           fill="#121a2c"
           id="path1311" />
        <path
           d="M 31.5526,13.7552 C 29.8926,9.61301 26.8535,6.33056 23.457,5.21034 20.0604,4.09013 14.9272,3.07413 13.3439,6.98184 c 0,0 -7.50825,13.28626 -7.99347,16.41236 L 4.02244,33.0854 3.9969,33.3198 c 0.76615,0.5471 3.1412,1.9539 7.1762,2.0841 4.2649,0.1303 5.7972,-1.537 6.7932,-2.579 0,-0.1303 0.0256,-0.2866 0.0256,-0.4429 0.1276,-1.485 0.5107,-3.3867 1.6599,-4.8456 2.1707,-2.7614 5.9504,-2.8657 5.9504,-2.8657 0,0 2.8603,0.3387 4.8523,-1.7714 1.9919,-2.1102 2.7326,-4.9759 1.0981,-9.1441 z"
           fill="#016666"
           id="path1313" />
        <path
           d="m 34.0055,25.2698 c 0,0 2.8092,2.5531 3.8307,3.4388 1.0216,0.8858 5.2865,3.9339 5.3119,4.6112 0,0.1562 -10.7004,-5.0019 -10.7004,-5.0019 0,0 -9.1682,-6.4868 -9.1172,-6.6691 0.0511,-0.1824 0.3831,-1.485 0.5875,-1.5631 0.2042,-0.0782 4.5202,0.0781 4.5202,0.0781 z"
           fill="#79455b"
           id="path1315" />
        <path
           d="m 23.8666,21.7791 c 0.7405,0.1041 4.9288,1.7193 7.3549,3.7513 2.4518,2.032 6.5634,4.9498 7.7637,5.523 1.2002,0.5991 4.2393,1.8756 4.1627,2.3706 -0.0766,0.495 -0.4341,1.3287 -3.2178,0.2084 -2.7837,-1.1462 -10.011,-5.5229 -11.0325,-6.2263 -1.0216,-0.7034 -6.1803,-4.2984 -6.1803,-4.2984 z"
           fill="#c8842c"
           id="path1317" />
        <path
           d="m 15.6434,13.5988 c 1.0215,-0.2084 4.1117,-0.1824 6.4867,2.1623 2.375,2.3446 2.7836,4.2203 2.1196,5.8876 -0.664,1.6672 -1.8897,2.9178 -4.3414,1.5891 -2.4517,-1.3286 -4.8012,-2.9698 -5.5419,-5.0018 -0.7405,-2.0321 1.277,-4.6372 1.277,-4.6372 z"
           fill="#02a484"
           id="path1319" />
        <path
           d="m 1.06025,17.4544 c 0.22985,2.1102 0.81722,3.517 3.21781,5.2364 1.09814,0.7816 2.27291,1.4068 4.77565,1.1984 2.52829,-0.2085 4.31589,-1.9278 5.15869,-3.8036 0.8428,-1.8756 2.2729,-6.2002 1.2258,-9.691 C 14.4167,6.90366 12.5014,6.43473 11.5564,6.12211 10.6115,5.78345 7.26604,4.97585 4.71222,6.48683 2.1584,7.99781 1.21348,11.0719 1.03471,13.9636 c -0.153225,2.6312 0.02554,3.4908 0.02554,3.4908 z"
           fill="#121a2c"
           id="path1321" />
        <path
           d="m 5.50348,8.15416 c 0,0 1.30245,-0.8597 3.72858,-0.33867 2.42604,0.52103 3.93294,2.29261 3.93294,4.45481 0,2.1623 -0.2554,6.0699 -2.2219,8.0498 -1.60889,1.6152 -5.82269,2.4489 -7.50821,-0.8335 -1.68552,-3.2825 2.4772,-5.7053 2.4772,-5.7053 z"
           fill="#1565ea"
           id="path1323" />
        <path
           d="m 18.2475,10.3946 c -0.332,-1.06818 0.5362,-2.44891 2.7326,-2.91783 2.1963,-0.46893 4.4691,0 5.6439,2.11019 1.1748,2.11014 -1.0471,3.15224 -2.324,3.43874 -1.2769,0.2866 -5.2353,10e-5 -6.0525,-2.6311 z"
           fill="#02a484"
           id="path1325" />
        <path
           d="m 21.3113,14.4325 c 0.2042,-1.537 1.1747,-2.6573 2.1451,-2.7615 0.4598,-0.0521 0.8173,0.1824 1.0727,0.5211 -0.1277,-0.4169 -0.332,-0.7816 -0.5874,-1.0942 -1.0726,-1.19839 -3.1412,-0.2345 -3.7797,2.1362 -0.6384,2.3707 0.2554,4.2725 1.1748,4.533 0.4341,0.1302 0.7917,0.1042 1.1237,0.0261 -0.0766,-0.0261 -0.1277,-0.0261 -0.2043,-0.0783 -1.3791,-0.7033 -1.0215,-2.7093 -0.9449,-3.2824 z"
           fill="#fdffff"
           id="path1327" />
        <path
           d="m 24.531,12.192 c 0.383,1.1984 0.1787,2.7094 -0.2554,3.6212 -0.4342,0.8857 -0.9961,1.7194 -1.8388,1.9538"
           fill="#121a2c"
           id="path1329" />
        <path
           d="m 24.2751,15.8132 c 0.4341,-0.9118 0.6129,-2.4229 0.2554,-3.6212 -0.2554,-0.3387 -0.6385,-0.5732 -1.0727,-0.521 -0.9704,0.1041 -1.9664,1.2244 -2.1451,2.7614 -0.0767,0.5732 -0.4086,2.6051 0.9448,3.2565 0.0767,0.0259 0.1277,0.052 0.2044,0.0781 0.8427,-0.2345 1.4046,-1.0681 1.8132,-1.9538 z"
           fill="#121a2c"
           id="path1331" />
        <path
           d="m 44.7565,28.8129 c -0.6385,-0.6253 -1.4557,-1.3287 -1.2003,-1.6412 0.1532,-0.1824 0.5363,-0.2085 1.0981,0 -1.1747,-0.8337 -2.6815,-1.8497 -4.2904,-2.996 -3.6264,-2.579 -7.9168,-6.6691 -8.3509,-6.9818 -1.4813,-1.0941 -1.7367,0.0782 -1.7622,0.6513 -0.0256,0.5732 -0.0256,1.2766 -1.328,1.8757 -1.3025,0.5993 -2.8092,0.0261 -3.703,-0.1042 -0.8939,-0.1302 -0.8173,0.5992 -0.3831,0.964 1.4557,1.1983 16.4977,8.649 19.6644,9.3003 0.1021,0.026 0.1788,0.026 0.2809,0.0521 0.1277,-0.2084 0.4342,-0.6773 -0.0255,-1.1202 z"
           fill="#ffcc34"
           id="path1333" />
        <path
           d="m 46.9272,29.4642 c 0.1022,-0.4168 -0.8427,-1.2244 -2.2984,-2.2925 -0.5618,-0.2345 -0.945,-0.1823 -1.0981,0 -0.2299,0.2865 0.5873,1.0159 1.2002,1.6412 0.4597,0.4428 0.1788,0.9118 -0.0255,1.1202 1.7366,0.3387 2.0686,0.2605 2.2218,-0.4689 z"
           fill="#c8842c"
           id="path1335" />
        <path
           d="m 31.6805,20.763 c 0.2554,0.6513 1.5068,1.3547 2.1708,1.1983 0.6895,-0.1563 0.3576,-0.8597 -0.4852,-1.6933 -0.8427,-0.8076 -2.1708,-0.7816 -1.6856,0.495 z"
           fill="#c8842c"
           id="path1337" />
        <path
           d="M 7.26587,23.4984 7.4191,37.9308 9.15569,38.4779 8.92585,23.4984 Z"
           fill="#121a2c"
           id="path1339" />
        <path
           d="M 10.7909,18.262 C 9.43736,21.3882 7.16447,21.284 5.22356,20.789 3.18051,20.268 2.6442,18.2099 2.56759,16.2821 2.54205,15.2401 2.92513,10.9155 4.25311,9.14401 5.5811,7.37251 8.03276,7.81539 8.77337,8.0238 c 0.7406,0.20841 3.49873,1.58911 3.09013,4.9759 -0.4086,3.569 -0.5619,4.09 -1.0726,5.2623 z"
           fill="#ffffff"
           id="path1341" />
        <path
           d="m 3.9969,17.5586 0.43415,-1.5631 c 0,0 1.83875,0.99 2.70704,0.6252 C 7.98085,16.256 7.59779,15.3443 6.65287,14.9535 5.70796,14.5367 4.48212,13.8854 4.96735,11.9576 5.45257,10.0298 6.72949,9.45659 9.79408,10.629 l -0.56185,1.6672 c 0,0 -2.50274,-1.2764 -2.73258,0.0782 -0.15324,1.016 3.44768,1.1463 2.80919,3.9858 -0.89383,3.5691 -5.31194,1.1984 -5.31194,1.1984 z"
           fill="#1565ea"
           id="path1343" />
      </g>
    </g>
  </g>
</svg>
